<svg xmlns="http://www.w3.org/2000/svg" viewBox="0 0 99.65 93.72">
<title>Asset 2</title>
<g id="Layer_2" data-name="Layer 2">
<g id="Layer_1-2" data-name="Layer 1">
<path d="M42,.19A40.71,40.71,0,0,1,47.19,0,38.43,38.43,0,0,1,53,.22a78.58,78.58,0,0,1,9.3,1.66c2.09.7,4,1.8,6.25,2.18a24.84,24.84,0,0,1,8.68,3.77,96.21,96.21,0,0,1,10.66,8.1,86.81,86.81,0,0,1,6,7.73,27.19,27.19,0,0,1,4.31,9.71c.47,2.5,1.36,4.94,1.47,7.51.25,3.82-1,7.49-1.59,11.22a35,35,0,0,1-2.6,7.37c-.71,1.73-2.09,3-3.19,4.53a10.72,10.72,0,0,1-3.38,2.81,47,47,0,0,1-4.53,2.64c-5.27,2.13-10.95,2.82-16.52,3.73a18,18,0,0,0-4.84,1c-.82.3-1.12,1.2-1.34,2a24.58,24.58,0,0,1-1.27,4.07,34.26,34.26,0,0,1-4.6,6.61,41.81,41.81,0,0,1-6.65,6.15,2.41,2.41,0,0,1-2.81.55c-.92-.56-1.86-1.88-1.12-2.92,1-1.44,2.36-2.56,3.1-4.15a14.12,14.12,0,0,0,1.19-8.77c-.42-1.41-1.13-3-2.6-3.59-2.49-.39-5,.23-7.49.19a68.53,68.53,0,0,1-8.86-.15,36.69,36.69,0,0,1-9-1.91,40.2,40.2,0,0,1-10.6-6,31.13,31.13,0,0,1-6.81-7.83C1.61,54.47-.16,49.95,0,45.28c0-1.36,0-2.73,0-4.09.45-5,2.54-9.63,4.53-14.17a40,40,0,0,1,5.07-8.34,34.06,34.06,0,0,1,6-6.51c2.29-1.88,4.39-4,7-5.52a40.55,40.55,0,0,1,8.48-4c2.14-.64,4.14-1.8,6.4-2C39,.56,40.51.38,42,.19Z"/>
</g>
</g>
</svg>